# Blender v3.5.0 OBJ File: 'razer.blend'
# www.blender.org
mtllib player.mtl
o 立方体
v 1.000000 0.000000 0.000000
v -1.000000 0.000000 0.000000
v 0.000000 -1.000000 0.000000
v 0.000000 1.000000 0.000000
v 0.000000 0.000000 -1.991907
v 0.000000 0.000000 4.008053
v 0.141421 0.000000 1.673770
v 0.000000 0.141421 1.673770
v 0.081668 0.000000 5.675942
v 0.000000 0.081668 5.675942
v 0.000000 -0.141421 1.673770
v -0.141421 0.000000 1.673770
v 0.000000 -0.081668 5.675942
v -0.081668 0.000000 5.675942
v 0.000000 0.141421 5.673770
v 0.141421 0.000000 5.673770
v 0.000000 -0.141421 5.673770
v -0.141421 0.000000 5.673770
v 0.000000 0.081668 3.530681
v 0.081668 0.000000 3.530681
v 0.000000 -0.081668 3.530681
v -0.081668 0.000000 3.530681
v 0.006581 0.134246 5.581636
v 0.006581 0.163526 5.608523
v 0.006581 0.134246 5.673615
v 0.006581 0.163526 5.673615
v -0.006581 0.134246 5.581636
v -0.006581 0.163526 5.608523
v -0.006581 0.134246 5.673615
v -0.006581 0.163526 5.673615
v -1.907245 1.870926 -3.438761
v -0.507789 1.307907 -1.093904
v -0.576400 1.400964 -1.026811
v -1.213122 0.604902 -0.943332
v -1.281733 0.697959 -0.876238
v -0.716423 0.914618 -0.399923
v 1.903430 1.870926 -3.443600
v 0.503974 1.307907 -1.098744
v 0.572585 1.400964 -1.031650
v 1.209307 0.604902 -0.948171
v 1.277918 0.697959 -0.881078
v 0.712608 0.914618 -0.404762
v 1.903430 -1.872795 -3.444769
v 0.503974 -1.309776 -1.099913
v 0.572585 -1.402833 -1.032819
v 1.209307 -0.606772 -0.949340
v 1.277918 -0.699829 -0.882246
v 0.712608 -0.916488 -0.405931
v -1.903955 -1.872796 -3.444768
v -0.504498 -1.309776 -1.099913
v -0.573109 -1.402833 -1.032819
v -1.209831 -0.606772 -0.949340
v -1.278442 -0.699829 -0.882246
v -0.713132 -0.916488 -0.405931
vt 0.500000 0.375000
vt 0.625000 0.375000
vt 0.500000 0.500000
vt 0.500000 0.875000
vt 0.625000 0.875000
vt 0.500000 1.000000
vt 0.375000 0.875000
vt 0.375000 1.000000
vt 0.500000 0.750000
vt 0.625000 0.750000
vt 0.375000 0.375000
vt 0.375000 0.500000
vt 0.500000 0.250000
vt 0.625000 0.250000
vt 0.625000 0.000000
vt 0.375000 0.250000
vt 0.375000 0.000000
vt 0.572185 0.447185
vt 0.572185 0.302815
vt 0.572185 0.302815
vt 0.625000 0.500000
vt 0.375000 0.750000
vt 0.375000 0.500000
vt 0.625000 0.750000
vt 0.375000 1.000000
vt 0.125000 0.750000
vt 0.125000 0.500000
vt 0.875000 0.500000
vt 0.427815 0.302815
vt 0.625000 0.250000
vt 0.427815 0.447185
vt 0.427815 0.447185
vt 0.427815 0.302815
vt 0.572185 0.447185
vt 0.625000 0.000000
vt 0.375000 0.250000
vt 0.375000 0.000000
vt 0.625000 0.250000
vt 0.375000 0.500000
vt 0.625000 0.750000
vt 0.375000 0.750000
vt 0.375000 1.000000
vt 0.125000 0.750000
vt 0.125000 0.500000
vt 0.875000 0.500000
vt 0.625000 0.500000
vt 0.625000 0.000000
vt 0.625000 0.250000
vt 0.375000 0.250000
vt 0.375000 0.500000
vt 0.625000 0.500000
vt 0.625000 0.750000
vt 0.375000 0.750000
vt 0.375000 1.000000
vt 0.125000 0.500000
vt 0.125000 0.750000
vt 0.875000 0.500000
vt 0.625000 0.000000
vt 0.625000 0.250000
vt 0.375000 0.250000
vt 0.375000 0.500000
vt 0.625000 0.500000
vt 0.625000 0.750000
vt 0.375000 0.750000
vt 0.375000 1.000000
vt 0.125000 0.500000
vt 0.125000 0.750000
vt 0.875000 0.500000
vt 0.625000 0.000000
vt 0.625000 0.250000
vt 0.375000 0.250000
vt 0.375000 0.500000
vt 0.625000 0.500000
vt 0.625000 0.750000
vt 0.375000 0.750000
vt 0.375000 1.000000
vt 0.125000 0.500000
vt 0.125000 0.750000
vt 0.875000 0.500000
vt 0.625000 0.000000
vt 0.625000 0.250000
vt 0.375000 0.250000
vt 0.375000 0.500000
vt 0.625000 0.500000
vt 0.625000 0.750000
vt 0.375000 0.750000
vt 0.375000 1.000000
vt 0.125000 0.500000
vt 0.125000 0.750000
vt 0.875000 0.500000
vt 0.625000 1.000000
vt 0.875000 0.750000
vt 0.625000 1.000000
vt 0.875000 0.750000
vt 0.875000 0.750000
vt 0.875000 0.750000
vt 0.875000 0.750000
vt 0.875000 0.750000
vn -0.6964 0.6964 0.1737
vn 0.6664 0.6664 -0.3345
vn 0.6664 -0.6664 -0.3345
vn -0.6664 -0.6664 -0.3345
vn -0.6664 0.6664 -0.3345
vn -0.6964 -0.6964 0.1737
vn 0.6964 -0.6964 0.1737
vn 0.6964 0.6964 0.1737
vn 0.7071 0.7071 0.0000
vn 0.7071 -0.7071 0.0000
vn -0.7071 -0.7071 0.0000
vn 0.0000 0.0000 -1.0000
vn -0.7071 0.7071 0.0000
vn 0.0363 0.0363 0.9987
vn 0.0363 -0.0363 0.9987
vn -0.0363 0.0363 0.9987
vn -0.0363 -0.0363 0.9987
vn 0.0000 0.0000 1.0000
vn 1.0000 0.0000 0.0000
vn -1.0000 -0.0000 0.0000
vn 0.0000 0.6764 -0.7366
vn 0.0000 -1.0000 0.0000
vn 0.0000 1.0000 0.0000
vn 0.6870 0.6838 -0.2458
vn 0.8461 0.3127 0.4316
vn -0.2917 -0.6915 0.6608
vn -0.8230 -0.5651 -0.0578
vn 0.5588 -0.6664 -0.4935
vn -0.6024 0.6902 0.4009
vn 0.6870 -0.6838 0.2458
vn 0.8461 -0.3127 -0.4316
vn -0.2917 0.6915 -0.6608
vn -0.8230 0.5651 0.0578
vn 0.5588 0.6664 0.4935
vn -0.6024 -0.6902 -0.4009
vn -0.6870 -0.6838 -0.2458
vn -0.8461 -0.3127 0.4316
vn 0.2917 0.6915 0.6608
vn 0.8230 0.5651 -0.0578
vn -0.5588 0.6664 -0.4935
vn 0.6024 -0.6902 0.4009
vn -0.6870 0.6838 0.2458
vn -0.8461 0.3127 -0.4316
vn 0.2917 -0.6915 -0.6608
vn 0.8230 -0.5651 0.0578
vn -0.5588 -0.6664 0.4935
vn 0.6024 0.6902 -0.4009
vn 0.6689 -0.7148 -0.2040
vn -0.5795 0.6782 0.4519
vn 0.6689 0.7148 0.2040
vn -0.5795 -0.6782 -0.4519
vn -0.6689 0.7148 -0.2040
vn 0.5795 -0.6782 0.4519
vn -0.6689 -0.7148 0.2040
vn 0.5795 0.6782 -0.4519
usemtl None
s off
f 6/1/1 4/2/1 2/3/1
f 5/4/2 4/5/2 1/6/2
f 3/7/3 5/4/3 1/8/3
f 2/9/4 5/4/4 3/7/4
f 2/10/5 4/5/5 5/4/5
f 3/11/6 6/1/6 2/12/6
f 1/13/7 6/1/7 3/11/7
f 1/14/8 4/2/8 6/1/8
f 8/15/9 16/16/9 7/17/9
f 14/18/10 19/19/10 10/20/10
f 18/21/11 11/22/11 17/23/11
f 12/24/12 7/25/12 11/22/12
f 17/23/10 7/26/10 16/27/10
f 15/28/13 12/24/13 18/21/13
f 9/29/14 15/30/14 10/20/14
f 13/31/15 16/16/15 9/29/15
f 10/20/16 18/21/16 14/18/16
f 14/18/17 17/23/17 13/31/17
f 19/19/18 21/32/18 20/33/18
f 10/20/11 20/33/11 9/29/11
f 13/31/9 22/34/9 14/18/9
f 9/29/13 21/32/13 13/31/13
f 24/35/19 25/36/19 23/37/19
f 26/38/18 29/39/18 25/36/18
f 29/39/20 28/40/20 27/41/20
f 28/40/21 23/42/21 27/41/21
f 29/39/22 23/43/22 25/44/22
f 26/45/23 28/40/23 30/46/23
f 31/47/24 33/48/24 32/49/24
f 32/49/25 33/48/25 36/50/25
f 36/51/26 35/52/26 34/53/26
f 34/53/27 35/52/27 31/54/27
f 32/55/28 34/53/28 31/56/28
f 33/57/29 35/52/29 36/51/29
f 37/58/30 39/59/30 38/60/30
f 38/60/31 39/59/31 42/61/31
f 42/62/32 41/63/32 40/64/32
f 40/64/33 41/63/33 37/65/33
f 38/66/34 40/64/34 37/67/34
f 39/68/35 41/63/35 42/62/35
f 43/69/36 45/70/36 44/71/36
f 44/71/37 45/70/37 48/72/37
f 48/73/38 47/74/38 46/75/38
f 46/75/39 47/74/39 43/76/39
f 44/77/40 46/75/40 43/78/40
f 45/79/41 47/74/41 48/73/41
f 49/80/42 51/81/42 50/82/42
f 50/82/43 51/81/43 54/83/43
f 54/84/44 53/85/44 52/86/44
f 52/86/45 53/85/45 49/87/45
f 50/88/46 52/86/46 49/89/46
f 51/90/47 53/85/47 54/84/47
f 8/15/9 15/30/9 16/16/9
f 14/18/10 22/34/10 19/19/10
f 18/21/11 12/24/11 11/22/11
f 12/24/12 8/91/12 7/25/12
f 17/23/10 11/22/10 7/26/10
f 15/28/13 8/92/13 12/24/13
f 9/29/14 16/16/14 15/30/14
f 13/31/15 17/23/15 16/16/15
f 10/20/16 15/30/16 18/21/16
f 14/18/17 18/21/17 17/23/17
f 19/19/18 22/34/18 21/32/18
f 10/20/11 19/19/11 20/33/11
f 13/31/9 21/32/9 22/34/9
f 9/29/13 20/33/13 21/32/13
f 24/35/19 26/38/19 25/36/19
f 26/38/18 30/46/18 29/39/18
f 29/39/20 30/46/20 28/40/20
f 28/40/21 24/93/21 23/42/21
f 29/39/22 27/41/22 23/43/22
f 26/45/23 24/94/23 28/40/23
f 32/55/48 36/50/48 34/53/48
f 33/57/49 31/95/49 35/52/49
f 38/66/50 42/61/50 40/64/50
f 39/68/51 37/96/51 41/63/51
f 44/77/52 48/72/52 46/75/52
f 45/79/53 43/97/53 47/74/53
f 50/88/54 54/83/54 52/86/54
f 51/90/55 49/98/55 53/85/55
